{"asset":{"version":"2.0","generator":"VECTARY"},"scene":0,"extensionsUsed":["KHR_texture_transform"],"nodes":[{"translation":[0,0,0],"scale":[0.001,0.001,0.001],"rotation":[-0.7071067811865475,0,0,0.7071067811865476],"name":"Limousine","children":[1,2,3,4,5,6]},{"translation":[17.91350030899048,1.7763568394002505e-15,0],"scale":[1,1,1],"rotation":[0,0,0,1],"name":"Cabin","mesh":0},{"translation":[-3.8189992904663086,1.7763568394002505e-15,10.170000076293945],"scale":[1,1,1],"rotation":[0,0,0,1],"name":"Windows/Wheels","mesh":1},{"translation":[17.91350030899048,1.7763568394002505e-15,0],"scale":[1,1,1],"rotation":[0,0,0,1],"name":"Disk","mesh":2},{"translation":[17.91350030899048,1.7763568394002505e-15,0],"scale":[1,1,1],"rotation":[0,0,0,1],"name":"Front lights","mesh":3},{"translation":[17.91350030899048,1.7763568394002505e-15,0],"scale":[1,1,1],"rotation":[0,0,0,1],"name":"Red lights","mesh":4},{"translation":[1.044999599456787,1.7763568394002505e-15,0],"scale":[1,1,1],"rotation":[0,0,0,1],"name":"Wheels","mesh":5}],"materials":[{"pbrMetallicRoughness":{"baseColorFactor":[1,0.1411764705882353,0.1411764705882353,1],"metallicFactor":0,"roughnessFactor":0.5},"name":"Material 1","emissiveFactor":[0,0,0],"alphaMode":"OPAQUE","doubleSided":false},{"pbrMetallicRoughness":{"baseColorFactor":[0.24313725490196078,0.24705882352941178,0.3176470588235294,1],"metallicFactor":0,"roughnessFactor":0},"name":"Material 2","emissiveFactor":[0,0,0],"alphaMode":"OPAQUE","doubleSided":false},{"pbrMetallicRoughness":{"baseColorFactor":[0.7411764705882353,0.7411764705882353,0.7411764705882353,1],"metallicFactor":0,"roughnessFactor":0.2},"name":"Default material","emissiveFactor":[0,0,0],"alphaMode":"OPAQUE","doubleSided":false},{"pbrMetallicRoughness":{"baseColorFactor":[1,1,1,1],"metallicFactor":0,"roughnessFactor":0.2},"name":"Material 3","emissiveFactor":[0,0,0],"alphaMode":"OPAQUE","doubleSided":false},{"pbrMetallicRoughness":{"baseColorFactor":[0.9764705882352941,0.32941176470588235,0.4392156862745098,1],"metallicFactor":0,"roughnessFactor":0.2},"name":"Material 4","emissiveFactor":[0,0,0],"alphaMode":"OPAQUE","doubleSided":false},{"pbrMetallicRoughness":{"baseColorFactor":[0.24313725490196078,0.24705882352941178,0.3176470588235294,1],"metallicFactor":0,"roughnessFactor":1},"name":"Object material","emissiveFactor":[0,0,0],"alphaMode":"OPAQUE","doubleSided":false}],"meshes":[{"primitives":[{"mode":4,"attributes":{"POSITION":1,"NORMAL":2,"TEXCOORD_0":3},"material":0,"indices":0}]},{"primitives":[{"mode":4,"attributes":{"POSITION":5,"NORMAL":6,"TEXCOORD_0":7},"material":1,"indices":4}]},{"primitives":[{"mode":4,"attributes":{"POSITION":9,"NORMAL":10,"TEXCOORD_0":11},"material":2,"indices":8}]},{"primitives":[{"mode":4,"attributes":{"POSITION":13,"NORMAL":14,"TEXCOORD_0":15},"material":3,"indices":12}]},{"primitives":[{"mode":4,"attributes":{"POSITION":17,"NORMAL":18,"TEXCOORD_0":19},"material":4,"indices":16}]},{"primitives":[{"mode":4,"attributes":{"POSITION":21,"NORMAL":22,"TEXCOORD_0":23},"material":5,"indices":20}]}],"accessors":[{"bufferView":0,"byteOffset":0,"componentType":5125,"count":1980,"type":"SCALAR"},{"bufferView":1,"byteOffset":0,"componentType":5126,"count":1980,"max":[9.630000114440918,8.70199966430664,15.699000358581543],"min":[-45.356998443603516,-8.70199966430664,1.7170000076293945],"type":"VEC3"},{"bufferView":2,"byteOffset":0,"componentType":5126,"count":1980,"type":"VEC3"},{"bufferView":3,"byteOffset":0,"componentType":5126,"count":1980,"type":"VEC2"},{"bufferView":4,"byteOffset":0,"componentType":5125,"count":456,"type":"SCALAR"},{"bufferView":5,"byteOffset":0,"componentType":5126,"count":456,"max":[16.539499282836914,8.70199966430664,4.769000053405762],"min":[-16.539499282836914,-8.70199966430664,0],"type":"VEC3"},{"bufferView":6,"byteOffset":0,"componentType":5126,"count":456,"type":"VEC3"},{"bufferView":7,"byteOffset":0,"componentType":5126,"count":456,"type":"VEC2"},{"bufferView":8,"byteOffset":0,"componentType":5125,"count":1152,"type":"SCALAR"},{"bufferView":9,"byteOffset":0,"componentType":5126,"count":1152,"max":[2.1530001163482666,8.73799991607666,5.5879998207092285],"min":[-35.88999938964844,-8.73799991607666,1.281000018119812],"type":"VEC3"},{"bufferView":10,"byteOffset":0,"componentType":5126,"count":1152,"type":"VEC3"},{"bufferView":11,"byteOffset":0,"componentType":5126,"count":1152,"type":"VEC2"},{"bufferView":12,"byteOffset":0,"componentType":5125,"count":72,"type":"SCALAR"},{"bufferView":13,"byteOffset":0,"componentType":5126,"count":72,"max":[9.055999755859375,8.440999984741211,8.746000289916992],"min":[8.37399959564209,-8.440999984741211,7.169000148773193],"type":"VEC3"},{"bufferView":14,"byteOffset":0,"componentType":5126,"count":72,"type":"VEC3"},{"bufferView":15,"byteOffset":0,"componentType":5126,"count":72,"type":"VEC2"},{"bufferView":16,"byteOffset":0,"componentType":5125,"count":72,"type":"SCALAR"},{"bufferView":17,"byteOffset":0,"componentType":5126,"count":72,"max":[-45.356998443603516,8.440999984741211,9.5600004196167],"min":[-45.457000732421875,-8.440999984741211,7.966000080108643],"type":"VEC3"},{"bufferView":18,"byteOffset":0,"componentType":5126,"count":72,"type":"VEC3"},{"bufferView":19,"byteOffset":0,"componentType":5126,"count":72,"type":"VEC2"},{"bufferView":20,"byteOffset":0,"componentType":5125,"count":1440,"type":"SCALAR"},{"bufferView":21,"byteOffset":0,"componentType":5126,"count":1440,"max":[20.302501678466797,8.70199966430664,6.868000030517578],"min":[-20.302501678466797,-8.70199966430664,0],"type":"VEC3"},{"bufferView":22,"byteOffset":0,"componentType":5126,"count":1440,"type":"VEC3"},{"bufferView":23,"byteOffset":0,"componentType":5126,"count":1440,"type":"VEC2"}],"bufferViews":[{"buffer":0,"byteOffset":0,"byteLength":7920,"target":34963},{"buffer":0,"byteOffset":7920,"byteLength":23760,"target":34962},{"buffer":0,"byteOffset":31680,"byteLength":23760,"target":34962},{"buffer":0,"byteOffset":55440,"byteLength":15840,"target":34962},{"buffer":0,"byteOffset":71280,"byteLength":1824,"target":34963},{"buffer":0,"byteOffset":73104,"byteLength":5472,"target":34962},{"buffer":0,"byteOffset":78576,"byteLength":5472,"target":34962},{"buffer":0,"byteOffset":84048,"byteLength":3648,"target":34962},{"buffer":0,"byteOffset":87696,"byteLength":4608,"target":34963},{"buffer":0,"byteOffset":92304,"byteLength":13824,"target":34962},{"buffer":0,"byteOffset":106128,"byteLength":13824,"target":34962},{"buffer":0,"byteOffset":119952,"byteLength":9216,"target":34962},{"buffer":0,"byteOffset":129168,"byteLength":288,"target":34963},{"buffer":0,"byteOffset":129456,"byteLength":864,"target":34962},{"buffer":0,"byteOffset":130320,"byteLength":864,"target":34962},{"buffer":0,"byteOffset":131184,"byteLength":576,"target":34962},{"buffer":0,"byteOffset":131760,"byteLength":288,"target":34963},{"buffer":0,"byteOffset":132048,"byteLength":864,"target":34962},{"buffer":0,"byteOffset":132912,"byteLength":864,"target":34962},{"buffer":0,"byteOffset":133776,"byteLength":576,"target":34962},{"buffer":0,"byteOffset":134352,"byteLength":5760,"target":34963},{"buffer":0,"byteOffset":140112,"byteLength":17280,"target":34962},{"buffer":0,"byteOffset":157392,"byteLength":17280,"target":34962},{"buffer":0,"byteOffset":174672,"byteLength":11520,"target":34962}],"scenes":[{"nodes":[0],"name":"LimoRed"}],"buffers":[{"byteLength":186192,"uri":"LimoRed.bin"}]}