{"asset":{"version":"2.0","generator":"VECTARY"},"scene":0,"extensionsUsed":["KHR_texture_transform"],"nodes":[{"translation":[0,0,0],"scale":[0.001,0.001,0.001],"rotation":[-0.7071067811865475,0,0,0.7071067811865476],"name":"Car","children":[1,2,3,4,5,6,7]},{"translation":[15.004000186920166,0,0],"scale":[1,1,1],"rotation":[0,0,0,1],"name":"Cabin 01","mesh":0},{"translation":[15.004000186920166,0,0],"scale":[1,1,1],"rotation":[0,0,0,1],"name":"Cabin 02","mesh":1},{"translation":[1.8570008277893066,0,12.99899959564209],"scale":[1,1,1],"rotation":[0,0,0,1],"name":"Windows","mesh":2},{"translation":[15.004000186920166,0,0],"scale":[1,1,1],"rotation":[0,0,0,1],"name":"Disk","mesh":3},{"translation":[15.004000186920166,0,0],"scale":[1,1,1],"rotation":[0,0,0,1],"name":"Front lights","mesh":4},{"translation":[15.004000186920166,0,0],"scale":[1,1,1],"rotation":[0,0,0,1],"name":"Red lights","mesh":5},{"translation":[1.2024998664855957,3.9527271057237124e-15,0],"scale":[1,1,1],"rotation":[0,0,0.7071067811865475,0.7071067811865476],"name":"Wheels","mesh":6}],"materials":[{"pbrMetallicRoughness":{"baseColorFactor":[0.8196078431372549,0.8196078431372549,0.8196078431372549,1],"metallicFactor":0,"roughnessFactor":0.5},"name":"Material 8","emissiveFactor":[0,0,0],"alphaMode":"OPAQUE","doubleSided":false},{"pbrMetallicRoughness":{"baseColorFactor":[0.24313725490196078,0.24705882352941178,0.3176470588235294,1],"metallicFactor":0,"roughnessFactor":0},"name":"Material 3","emissiveFactor":[0,0,0],"alphaMode":"OPAQUE","doubleSided":false},{"pbrMetallicRoughness":{"baseColorFactor":[0.6901960784313725,0.6901960784313725,0.6901960784313725,1],"metallicFactor":0,"roughnessFactor":0.2},"name":"Material 5","emissiveFactor":[0,0,0],"alphaMode":"OPAQUE","doubleSided":false},{"pbrMetallicRoughness":{"baseColorFactor":[1,1,1,1],"metallicFactor":0,"roughnessFactor":0.2},"name":"Material 6","emissiveFactor":[0,0,0],"alphaMode":"OPAQUE","doubleSided":false},{"pbrMetallicRoughness":{"baseColorFactor":[0.9764705882352941,0.32941176470588235,0.4392156862745098,1],"metallicFactor":0,"roughnessFactor":0.2},"name":"Material 7","emissiveFactor":[0,0,0],"alphaMode":"OPAQUE","doubleSided":false},{"pbrMetallicRoughness":{"baseColorFactor":[0.24313725490196078,0.24705882352941178,0.3176470588235294,1],"metallicFactor":0,"roughnessFactor":1},"name":"Object material","emissiveFactor":[0,0,0],"alphaMode":"OPAQUE","doubleSided":false}],"meshes":[{"primitives":[{"mode":4,"attributes":{"POSITION":1,"NORMAL":2,"TEXCOORD_0":3},"material":0,"indices":0}]},{"primitives":[{"mode":4,"attributes":{"POSITION":5,"NORMAL":6,"TEXCOORD_0":7},"material":0,"indices":4}]},{"primitives":[{"mode":4,"attributes":{"POSITION":9,"NORMAL":10,"TEXCOORD_0":11},"material":1,"indices":8}]},{"primitives":[{"mode":4,"attributes":{"POSITION":13,"NORMAL":14,"TEXCOORD_0":15},"material":2,"indices":12}]},{"primitives":[{"mode":4,"attributes":{"POSITION":17,"NORMAL":18,"TEXCOORD_0":19},"material":3,"indices":16}]},{"primitives":[{"mode":4,"attributes":{"POSITION":21,"NORMAL":22,"TEXCOORD_0":23},"material":4,"indices":20}]},{"primitives":[{"mode":4,"attributes":{"POSITION":25,"NORMAL":26,"TEXCOORD_0":27},"material":5,"indices":24}]}],"accessors":[{"bufferView":0,"byteOffset":0,"componentType":5125,"count":1260,"type":"SCALAR"},{"bufferView":1,"byteOffset":0,"componentType":5126,"count":1260,"max":[12.088000297546387,9.020999908447266,20.719999313354492],"min":[-4.357999801635742,-9.020999908447266,3.434000015258789],"type":"VEC3"},{"bufferView":2,"byteOffset":0,"componentType":5126,"count":1260,"type":"VEC3"},{"bufferView":3,"byteOffset":0,"componentType":5126,"count":1260,"type":"VEC2"},{"bufferView":4,"byteOffset":0,"componentType":5125,"count":3048,"type":"SCALAR"},{"bufferView":5,"byteOffset":0,"componentType":5126,"count":3048,"max":[8.631999969482422,9.020999908447266,30.69499969482422],"min":[-42.14500045776367,-9.020999908447266,3.434000015258789],"type":"VEC3"},{"bufferView":6,"byteOffset":0,"componentType":5126,"count":3048,"type":"VEC3"},{"bufferView":7,"byteOffset":0,"componentType":5126,"count":3048,"type":"VEC2"},{"bufferView":8,"byteOffset":0,"componentType":5125,"count":780,"type":"SCALAR"},{"bufferView":9,"byteOffset":0,"componentType":5126,"count":780,"max":[24.466999053955078,9.020999908447266,9.212000846862793],"min":[-24.466999053955078,-9.020999908447266,0],"type":"VEC3"},{"bufferView":10,"byteOffset":0,"componentType":5126,"count":780,"type":"VEC3"},{"bufferView":11,"byteOffset":0,"componentType":5126,"count":780,"type":"VEC2"},{"bufferView":12,"byteOffset":0,"componentType":5125,"count":1152,"type":"SCALAR"},{"bufferView":13,"byteOffset":0,"componentType":5126,"count":1152,"max":[1.968000054359436,8.552000045776367,5.4019999504089355],"min":[-29.570999145507812,-8.552000045776367,1.465999960899353],"type":"VEC3"},{"bufferView":14,"byteOffset":0,"componentType":5126,"count":1152,"type":"VEC3"},{"bufferView":15,"byteOffset":0,"componentType":5126,"count":1152,"type":"VEC2"},{"bufferView":16,"byteOffset":0,"componentType":5125,"count":144,"type":"SCALAR"},{"bufferView":17,"byteOffset":0,"componentType":5126,"count":144,"max":[12.13700008392334,7.88700008392334,11.482000350952148],"min":[11.833999633789062,-7.88700008392334,9.335000038146973],"type":"VEC3"},{"bufferView":18,"byteOffset":0,"componentType":5126,"count":144,"type":"VEC3"},{"bufferView":19,"byteOffset":0,"componentType":5126,"count":144,"type":"VEC2"},{"bufferView":20,"byteOffset":0,"componentType":5125,"count":120,"type":"SCALAR"},{"bufferView":21,"byteOffset":0,"componentType":5126,"count":120,"max":[-41.64699935913086,8.060999870300293,7.300000190734863],"min":[-41.81800079345703,-8.060999870300293,6.492000102996826],"type":"VEC3"},{"bufferView":22,"byteOffset":0,"componentType":5126,"count":120,"type":"VEC3"},{"bufferView":23,"byteOffset":0,"componentType":5126,"count":120,"type":"VEC2"},{"bufferView":24,"byteOffset":0,"componentType":5125,"count":1440,"type":"SCALAR"},{"bufferView":25,"byteOffset":0,"componentType":5126,"count":1440,"max":[8.50100040435791,17.23550033569336,6.868000030517578],"min":[-8.50100040435791,-17.23550033569336,0],"type":"VEC3"},{"bufferView":26,"byteOffset":0,"componentType":5126,"count":1440,"type":"VEC3"},{"bufferView":27,"byteOffset":0,"componentType":5126,"count":1440,"type":"VEC2"}],"bufferViews":[{"buffer":0,"byteOffset":0,"byteLength":5040,"target":34963},{"buffer":0,"byteOffset":5040,"byteLength":15120,"target":34962},{"buffer":0,"byteOffset":20160,"byteLength":15120,"target":34962},{"buffer":0,"byteOffset":35280,"byteLength":10080,"target":34962},{"buffer":0,"byteOffset":45360,"byteLength":12192,"target":34963},{"buffer":0,"byteOffset":57552,"byteLength":36576,"target":34962},{"buffer":0,"byteOffset":94128,"byteLength":36576,"target":34962},{"buffer":0,"byteOffset":130704,"byteLength":24384,"target":34962},{"buffer":0,"byteOffset":155088,"byteLength":3120,"target":34963},{"buffer":0,"byteOffset":158208,"byteLength":9360,"target":34962},{"buffer":0,"byteOffset":167568,"byteLength":9360,"target":34962},{"buffer":0,"byteOffset":176928,"byteLength":6240,"target":34962},{"buffer":0,"byteOffset":183168,"byteLength":4608,"target":34963},{"buffer":0,"byteOffset":187776,"byteLength":13824,"target":34962},{"buffer":0,"byteOffset":201600,"byteLength":13824,"target":34962},{"buffer":0,"byteOffset":215424,"byteLength":9216,"target":34962},{"buffer":0,"byteOffset":224640,"byteLength":576,"target":34963},{"buffer":0,"byteOffset":225216,"byteLength":1728,"target":34962},{"buffer":0,"byteOffset":226944,"byteLength":1728,"target":34962},{"buffer":0,"byteOffset":228672,"byteLength":1152,"target":34962},{"buffer":0,"byteOffset":229824,"byteLength":480,"target":34963},{"buffer":0,"byteOffset":230304,"byteLength":1440,"target":34962},{"buffer":0,"byteOffset":231744,"byteLength":1440,"target":34962},{"buffer":0,"byteOffset":233184,"byteLength":960,"target":34962},{"buffer":0,"byteOffset":234144,"byteLength":5760,"target":34963},{"buffer":0,"byteOffset":239904,"byteLength":17280,"target":34962},{"buffer":0,"byteOffset":257184,"byteLength":17280,"target":34962},{"buffer":0,"byteOffset":274464,"byteLength":11520,"target":34962}],"scenes":[{"nodes":[0],"name":"Caravan"}],"buffers":[{"byteLength":285984,"uri":"Caravan.bin"}]}