{"asset":{"version":"2.0","generator":"VECTARY"},"scene":0,"extensionsUsed":["KHR_texture_transform"],"nodes":[{"translation":[0,0,0],"scale":[0.001,0.001,0.001],"rotation":[-0.7071067811865475,0,0,0.7071067811865476],"name":"Car","children":[1,2,3,4,5,6]},{"translation":[11.179999828338623,2.3665827156630354e-30,-0.10300000011920929],"scale":[1,1,1],"rotation":[0,0,0,1],"name":"Cabin","mesh":0},{"translation":[-3.342000365257263,2.3665827156630354e-30,10.1819998472929],"scale":[1,1,1],"rotation":[0,0,0,1],"name":"Windows/Wheels","mesh":1},{"translation":[11.179999828338623,2.3665827156630354e-30,-0.10300000011920929],"scale":[1,1,1],"rotation":[0,0,0,1],"name":"Disk","mesh":2},{"translation":[11.179999828338623,2.3665827156630354e-30,-0.10300000011920929],"scale":[1,1,1],"rotation":[0,0,0,1],"name":"Front lights","mesh":3},{"translation":[11.179999828338623,2.3665827156630354e-30,-0.10300000011920929],"scale":[1,1,1],"rotation":[0,0,0,1],"name":"Red lights","mesh":4},{"translation":[-0.06900048255920588,2.4977798298348648e-15,3.0814879110195774e-33],"scale":[1.0000000000000002,1.0000000000000002,1],"rotation":[0,0,0.7071067811865475,0.7071067811865476],"name":"Wheels","mesh":5}],"materials":[{"pbrMetallicRoughness":{"baseColorFactor":[0.1843137254901961,0.1411764705882353,1,1],"metallicFactor":0,"roughnessFactor":0.5},"name":"Material 1","emissiveFactor":[0,0,0],"alphaMode":"OPAQUE","doubleSided":false},{"pbrMetallicRoughness":{"baseColorFactor":[0.24313725490196078,0.24705882352941178,0.3176470588235294,1],"metallicFactor":0,"roughnessFactor":0},"name":"Material 2","emissiveFactor":[0,0,0],"alphaMode":"OPAQUE","doubleSided":false},{"pbrMetallicRoughness":{"baseColorFactor":[0.6901960784313725,0.6901960784313725,0.6901960784313725,1],"metallicFactor":0,"roughnessFactor":0.2},"name":"Material 3","emissiveFactor":[0,0,0],"alphaMode":"OPAQUE","doubleSided":false},{"pbrMetallicRoughness":{"baseColorFactor":[1,1,1,1],"metallicFactor":0,"roughnessFactor":0.2},"name":"Material 4","emissiveFactor":[0,0,0],"alphaMode":"OPAQUE","doubleSided":false},{"pbrMetallicRoughness":{"baseColorFactor":[0.9764705882352941,0.32941176470588235,0.4392156862745098,1],"metallicFactor":0,"roughnessFactor":0.2},"name":"Material 5","emissiveFactor":[0,0,0],"alphaMode":"OPAQUE","doubleSided":false},{"pbrMetallicRoughness":{"baseColorFactor":[0.24313725490196078,0.24705882352941178,0.3176470588235294,1],"metallicFactor":0,"roughnessFactor":1},"name":"Object material","emissiveFactor":[0,0,0],"alphaMode":"OPAQUE","doubleSided":false}],"meshes":[{"primitives":[{"mode":4,"attributes":{"POSITION":1,"NORMAL":2,"TEXCOORD_0":3},"material":0,"indices":0}]},{"primitives":[{"mode":4,"attributes":{"POSITION":5,"NORMAL":6,"TEXCOORD_0":7},"material":1,"indices":4}]},{"primitives":[{"mode":4,"attributes":{"POSITION":9,"NORMAL":10,"TEXCOORD_0":11},"material":2,"indices":8}]},{"primitives":[{"mode":4,"attributes":{"POSITION":13,"NORMAL":14,"TEXCOORD_0":15},"material":3,"indices":12}]},{"primitives":[{"mode":4,"attributes":{"POSITION":17,"NORMAL":18,"TEXCOORD_0":19},"material":4,"indices":16}]},{"primitives":[{"mode":4,"attributes":{"POSITION":21,"NORMAL":22,"TEXCOORD_0":23},"material":5,"indices":20}]}],"accessors":[{"bufferView":0,"byteOffset":0,"componentType":5125,"count":2808,"type":"SCALAR"},{"bufferView":1,"byteOffset":0,"componentType":5126,"count":2808,"max":[5.269000053405762,7.705999851226807,15.359999656677246],"min":[-27.691999435424805,-7.705999851226807,1.6579999923706055],"type":"VEC3"},{"bufferView":2,"byteOffset":0,"componentType":5126,"count":2808,"type":"VEC3"},{"bufferView":3,"byteOffset":0,"componentType":5126,"count":2808,"type":"VEC2"},{"bufferView":4,"byteOffset":0,"componentType":5125,"count":936,"type":"SCALAR"},{"bufferView":5,"byteOffset":0,"componentType":5126,"count":936,"max":[11.335000038146973,7.166999816894531,4.407000541687012],"min":[-11.335000038146973,-7.166999816894531,0],"type":"VEC3"},{"bufferView":6,"byteOffset":0,"componentType":5126,"count":936,"type":"VEC3"},{"bufferView":7,"byteOffset":0,"componentType":5126,"count":936,"type":"VEC2"},{"bufferView":8,"byteOffset":0,"componentType":5125,"count":1152,"type":"SCALAR"},{"bufferView":9,"byteOffset":0,"componentType":5126,"count":1152,"max":[1.7510000467300415,7.427999973297119,5.5229997634887695],"min":[-24.25,-7.427999973297119,1.3450000286102295],"type":"VEC3"},{"bufferView":10,"byteOffset":0,"componentType":5126,"count":1152,"type":"VEC3"},{"bufferView":11,"byteOffset":0,"componentType":5126,"count":1152,"type":"VEC2"},{"bufferView":12,"byteOffset":0,"componentType":5125,"count":144,"type":"SCALAR"},{"bufferView":13,"byteOffset":0,"componentType":5126,"count":144,"max":[5.331999778747559,6.953000068664551,9.067000389099121],"min":[4.98199987411499,-6.953000068664551,6.820000171661377],"type":"VEC3"},{"bufferView":14,"byteOffset":0,"componentType":5126,"count":144,"type":"VEC3"},{"bufferView":15,"byteOffset":0,"componentType":5126,"count":144,"type":"VEC2"},{"bufferView":16,"byteOffset":0,"componentType":5125,"count":120,"type":"SCALAR"},{"bufferView":17,"byteOffset":0,"componentType":5126,"count":120,"max":[-26.229999542236328,7,8],"min":[-27.440000534057617,-7,5],"type":"VEC3"},{"bufferView":18,"byteOffset":0,"componentType":5126,"count":120,"type":"VEC3"},{"bufferView":19,"byteOffset":0,"componentType":5126,"count":120,"type":"VEC2"},{"bufferView":20,"byteOffset":0,"componentType":5125,"count":1440,"type":"SCALAR"},{"bufferView":21,"byteOffset":0,"componentType":5126,"count":1440,"max":[7.474999904632568,14.243000030517578,6.661999702453613],"min":[-7.474999904632568,-14.243000030517578,0],"type":"VEC3"},{"bufferView":22,"byteOffset":0,"componentType":5126,"count":1440,"type":"VEC3"},{"bufferView":23,"byteOffset":0,"componentType":5126,"count":1440,"type":"VEC2"}],"bufferViews":[{"buffer":0,"byteOffset":0,"byteLength":11232,"target":34963},{"buffer":0,"byteOffset":11232,"byteLength":33696,"target":34962},{"buffer":0,"byteOffset":44928,"byteLength":33696,"target":34962},{"buffer":0,"byteOffset":78624,"byteLength":22464,"target":34962},{"buffer":0,"byteOffset":101088,"byteLength":3744,"target":34963},{"buffer":0,"byteOffset":104832,"byteLength":11232,"target":34962},{"buffer":0,"byteOffset":116064,"byteLength":11232,"target":34962},{"buffer":0,"byteOffset":127296,"byteLength":7488,"target":34962},{"buffer":0,"byteOffset":134784,"byteLength":4608,"target":34963},{"buffer":0,"byteOffset":139392,"byteLength":13824,"target":34962},{"buffer":0,"byteOffset":153216,"byteLength":13824,"target":34962},{"buffer":0,"byteOffset":167040,"byteLength":9216,"target":34962},{"buffer":0,"byteOffset":176256,"byteLength":576,"target":34963},{"buffer":0,"byteOffset":176832,"byteLength":1728,"target":34962},{"buffer":0,"byteOffset":178560,"byteLength":1728,"target":34962},{"buffer":0,"byteOffset":180288,"byteLength":1152,"target":34962},{"buffer":0,"byteOffset":181440,"byteLength":480,"target":34963},{"buffer":0,"byteOffset":181920,"byteLength":1440,"target":34962},{"buffer":0,"byteOffset":183360,"byteLength":1440,"target":34962},{"buffer":0,"byteOffset":184800,"byteLength":960,"target":34962},{"buffer":0,"byteOffset":185760,"byteLength":5760,"target":34963},{"buffer":0,"byteOffset":191520,"byteLength":17280,"target":34962},{"buffer":0,"byteOffset":208800,"byteLength":17280,"target":34962},{"buffer":0,"byteOffset":226080,"byteLength":11520,"target":34962}],"scenes":[{"nodes":[0],"name":"CityBlue"}],"buffers":[{"byteLength":237600,"uri":"CityBlue.bin"}]}