{"asset":{"version":"2.0","generator":"VECTARY"},"scene":0,"extensionsUsed":["KHR_texture_transform"],"nodes":[{"translation":[0,0,0],"scale":[0.01542024606561306,0.01542024606561306,0.01542024606561306],"rotation":[-0.7071067811865475,0,0,0.7071067811865476],"name":"Dodge Charger","children":[1,2,3,4,5,6,7,8,9]},{"translation":[0,-0.09120047092437744,0.3675880134105678],"scale":[1,1,1],"rotation":[0.7071067811865475,0,0,0.7071067811865476],"name":"buffer-0-mesh-0","mesh":0},{"translation":[0,-0.09120047092437744,0.3675880134105678],"scale":[1,1,1],"rotation":[0.7071067811865475,0,0,0.7071067811865476],"name":"buffer-0-mesh-0 1","mesh":1},{"translation":[0,-0.09120047092437744,0.3675880134105678],"scale":[1,1,1],"rotation":[0.7071067811865475,0,0,0.7071067811865476],"name":"buffer-0-mesh-0 2","mesh":2},{"translation":[0,-0.09120047092437744,0.3675880134105678],"scale":[1,1,1],"rotation":[0.7071067811865475,0,0,0.7071067811865476],"name":"buffer-0-mesh-0 3","mesh":3},{"translation":[0,-0.09120047092437744,0.3675880134105678],"scale":[1,1,1],"rotation":[0.7071067811865475,0,0,0.7071067811865476],"name":"buffer-0-mesh-0 4","mesh":4},{"translation":[0,-0.09120047092437744,0.3675880134105678],"scale":[1,1,1],"rotation":[0.7071067811865475,0,0,0.7071067811865476],"name":"buffer-0-mesh-0 5","mesh":5},{"translation":[0,-0.09120047092437744,0.3675880134105678],"scale":[1,1,1],"rotation":[0.7071067811865475,0,0,0.7071067811865476],"name":"buffer-0-mesh-0 6","mesh":6},{"translation":[0,-0.09120047092437744,0.3675880134105678],"scale":[1,1,1],"rotation":[0.7071067811865475,0,0,0.7071067811865476],"name":"buffer-0-mesh-0 7","mesh":7},{"translation":[0,-0.09120047092437744,0.3675880134105678],"scale":[1,1,1],"rotation":[0.7071067811865475,0,0,0.7071067811865476],"name":"buffer-0-mesh-0 8","mesh":8}],"materials":[{"pbrMetallicRoughness":{"baseColorFactor":[1,1,1,1],"metallicFactor":0,"roughnessFactor":0.7448017359246658},"name":"Material 1","emissiveFactor":[0,0,0],"alphaMode":"OPAQUE","doubleSided":true},{"pbrMetallicRoughness":{"baseColorFactor":[1,0,0,1],"metallicFactor":0,"roughnessFactor":0.7448017359246658},"name":"Material 2","emissiveFactor":[0,0,0],"alphaMode":"OPAQUE","doubleSided":true},{"pbrMetallicRoughness":{"baseColorFactor":[0,0,0,1],"metallicFactor":0,"roughnessFactor":0.7448017359246658},"name":"Material 3","emissiveFactor":[0,0,0],"alphaMode":"OPAQUE","doubleSided":true},{"pbrMetallicRoughness":{"baseColorFactor":[0.392817,0.43658,0.483062,1],"metallicFactor":0,"roughnessFactor":0.7448017359246658},"name":"Material 4","emissiveFactor":[0,0,0],"alphaMode":"OPAQUE","doubleSided":true},{"pbrMetallicRoughness":{"baseColorFactor":[0.8,0,0,1],"metallicFactor":0,"roughnessFactor":0.7448017359246658},"name":"Material 5","emissiveFactor":[0,0,0],"alphaMode":"OPAQUE","doubleSided":true},{"pbrMetallicRoughness":{"baseColorFactor":[0,0,0,1],"metallicFactor":0,"roughnessFactor":0.7448017359246658},"name":"Material 6","emissiveFactor":[0,0,0],"alphaMode":"OPAQUE","doubleSided":true},{"pbrMetallicRoughness":{"baseColorFactor":[0.421692,0.421692,0.421692,1],"metallicFactor":0,"roughnessFactor":0.7448017359246658},"name":"Material 7","emissiveFactor":[0,0,0],"alphaMode":"OPAQUE","doubleSided":true},{"pbrMetallicRoughness":{"baseColorFactor":[0.000695,0.000202,0.000825,1],"metallicFactor":0,"roughnessFactor":0.7448017359246658},"name":"Material 8","emissiveFactor":[0,0,0],"alphaMode":"OPAQUE","doubleSided":true},{"pbrMetallicRoughness":{"baseColorFactor":[0.019326,0.019326,0.019326,1],"metallicFactor":0,"roughnessFactor":0.7448017359246658},"name":"Material 9","emissiveFactor":[0,0,0],"alphaMode":"OPAQUE","doubleSided":true}],"meshes":[{"primitives":[{"mode":4,"attributes":{"POSITION":1,"NORMAL":2},"material":0,"indices":0}]},{"primitives":[{"mode":4,"attributes":{"POSITION":4,"NORMAL":5},"material":1,"indices":3}]},{"primitives":[{"mode":4,"attributes":{"POSITION":7,"NORMAL":8},"material":2,"indices":6}]},{"primitives":[{"mode":4,"attributes":{"POSITION":10,"NORMAL":11},"material":3,"indices":9}]},{"primitives":[{"mode":4,"attributes":{"POSITION":13,"NORMAL":14},"material":4,"indices":12}]},{"primitives":[{"mode":4,"attributes":{"POSITION":16,"NORMAL":17},"material":5,"indices":15}]},{"primitives":[{"mode":4,"attributes":{"POSITION":19,"NORMAL":20},"material":6,"indices":18}]},{"primitives":[{"mode":4,"attributes":{"POSITION":22,"NORMAL":23},"material":7,"indices":21}]},{"primitives":[{"mode":4,"attributes":{"POSITION":25,"NORMAL":26},"material":8,"indices":24}]}],"accessors":[{"bufferView":0,"byteOffset":0,"componentType":5125,"count":1020,"type":"SCALAR"},{"bufferView":1,"byteOffset":0,"componentType":5126,"count":1020,"max":[1.0720349550247192,1.4005589485168457,0.9173499941825867],"min":[-1.0720349550247192,0.8912590146064758,-2.2950289249420166],"type":"VEC3"},{"bufferView":2,"byteOffset":0,"componentType":5126,"count":1020,"type":"VEC3"},{"bufferView":3,"byteOffset":0,"componentType":5125,"count":4260,"type":"SCALAR"},{"bufferView":4,"byteOffset":0,"componentType":5126,"count":4260,"max":[1.2791939973831177,1.3110120296478271,3.139111042022705],"min":[-1.2791939973831177,0.009166000410914421,-3.297879934310913],"type":"VEC3"},{"bufferView":5,"byteOffset":0,"componentType":5126,"count":4260,"type":"VEC3"},{"bufferView":6,"byteOffset":0,"componentType":5125,"count":222,"type":"SCALAR"},{"bufferView":7,"byteOffset":0,"componentType":5126,"count":222,"max":[1.1065829992294312,0.7769970297813416,3.044692039489746],"min":[-1.1065829992294312,0.4313400089740753,-3.1850709915161133],"type":"VEC3"},{"bufferView":8,"byteOffset":0,"componentType":5126,"count":222,"type":"VEC3"},{"bufferView":9,"byteOffset":0,"componentType":5125,"count":1206,"type":"SCALAR"},{"bufferView":10,"byteOffset":0,"componentType":5126,"count":1206,"max":[1.2042570114135742,0.723583996295929,3.151289939880371],"min":[-1.2042570114135742,0.07938999682664871,-3.333690881729126],"type":"VEC3"},{"bufferView":11,"byteOffset":0,"componentType":5126,"count":1206,"type":"VEC3"},{"bufferView":12,"byteOffset":0,"componentType":5125,"count":48,"type":"SCALAR"},{"bufferView":13,"byteOffset":0,"componentType":5126,"count":48,"max":[0.952489972114563,0.7483279705047607,-3.1312360763549805],"min":[-0.952489972114563,0.6167920231819153,-3.1850709915161133],"type":"VEC3"},{"bufferView":14,"byteOffset":0,"componentType":5126,"count":48,"type":"VEC3"},{"bufferView":15,"byteOffset":0,"componentType":5125,"count":324,"type":"SCALAR"},{"bufferView":16,"byteOffset":0,"componentType":5126,"count":324,"max":[1.0720349550247192,1.3363510370254517,1.0896580219268799],"min":[-1.0720349550247192,0.8912590146064758,-2.183345079421997],"type":"VEC3"},{"bufferView":17,"byteOffset":0,"componentType":5126,"count":324,"type":"VEC3"},{"bufferView":18,"byteOffset":0,"componentType":5125,"count":12732,"type":"SCALAR"},{"bufferView":19,"byteOffset":0,"componentType":5126,"count":12732,"max":[1.223958969116211,0.4472759962081909,2.3683888912200928],"min":[-1.2438520193099976,-0.28758901357650757,-2.0320160388946533],"type":"VEC3"},{"bufferView":20,"byteOffset":0,"componentType":5126,"count":12732,"type":"VEC3"},{"bufferView":21,"byteOffset":0,"componentType":5125,"count":4560,"type":"SCALAR"},{"bufferView":22,"byteOffset":0,"componentType":5126,"count":4560,"max":[1.2141499519348145,0.41031599044799805,2.3317580223083496],"min":[-1.234043002128601,-0.2506299912929535,-1.9618949890136719],"type":"VEC3"},{"bufferView":23,"byteOffset":0,"componentType":5126,"count":4560,"type":"VEC3"},{"bufferView":24,"byteOffset":0,"componentType":5125,"count":7200,"type":"SCALAR"},{"bufferView":25,"byteOffset":0,"componentType":5126,"count":7200,"max":[1.2093479633331299,0.5272740125656128,2.448251962661743],"min":[-1.2292410135269165,-0.36758801341056824,-2.078389883041382],"type":"VEC3"},{"bufferView":26,"byteOffset":0,"componentType":5126,"count":7200,"type":"VEC3"}],"bufferViews":[{"buffer":0,"byteOffset":0,"byteLength":4080,"target":34963},{"buffer":0,"byteOffset":4080,"byteLength":12240,"target":34962},{"buffer":0,"byteOffset":16320,"byteLength":12240,"target":34962},{"buffer":0,"byteOffset":28560,"byteLength":17040,"target":34963},{"buffer":0,"byteOffset":45600,"byteLength":51120,"target":34962},{"buffer":0,"byteOffset":96720,"byteLength":51120,"target":34962},{"buffer":0,"byteOffset":147840,"byteLength":888,"target":34963},{"buffer":0,"byteOffset":148728,"byteLength":2664,"target":34962},{"buffer":0,"byteOffset":151392,"byteLength":2664,"target":34962},{"buffer":0,"byteOffset":154056,"byteLength":4824,"target":34963},{"buffer":0,"byteOffset":158880,"byteLength":14472,"target":34962},{"buffer":0,"byteOffset":173352,"byteLength":14472,"target":34962},{"buffer":0,"byteOffset":187824,"byteLength":192,"target":34963},{"buffer":0,"byteOffset":188016,"byteLength":576,"target":34962},{"buffer":0,"byteOffset":188592,"byteLength":576,"target":34962},{"buffer":0,"byteOffset":189168,"byteLength":1296,"target":34963},{"buffer":0,"byteOffset":190464,"byteLength":3888,"target":34962},{"buffer":0,"byteOffset":194352,"byteLength":3888,"target":34962},{"buffer":0,"byteOffset":198240,"byteLength":50928,"target":34963},{"buffer":0,"byteOffset":249168,"byteLength":152784,"target":34962},{"buffer":0,"byteOffset":401952,"byteLength":152784,"target":34962},{"buffer":0,"byteOffset":554736,"byteLength":18240,"target":34963},{"buffer":0,"byteOffset":572976,"byteLength":54720,"target":34962},{"buffer":0,"byteOffset":627696,"byteLength":54720,"target":34962},{"buffer":0,"byteOffset":682416,"byteLength":28800,"target":34963},{"buffer":0,"byteOffset":711216,"byteLength":86400,"target":34962},{"buffer":0,"byteOffset":797616,"byteLength":86400,"target":34962}],"scenes":[{"nodes":[0],"name":"red"}],"buffers":[{"byteLength":884016,"uri":"red.bin"}]}