{"asset":{"version":"2.0","generator":"VECTARY"},"scene":0,"extensionsUsed":["KHR_texture_transform"],"nodes":[{"translation":[0,0,0],"scale":[0.001,0.001,0.001],"rotation":[-0.7071067811865475,0,0,0.7071067811865476],"name":"Car","children":[1,2,3,4,5,6,7,8,9,10,11,12,13,14,15,16,17,18]},{"translation":[3.4397523403167725,1.7881393432617188e-7,4.119787216186523],"scale":[1,1,1],"rotation":[0,0,0,1],"name":"Wheels/Windows","mesh":0},{"translation":[0.5182342529296875,1.1920928955078125e-7,1.9204017370939255],"scale":[1,1,1],"rotation":[0,0,0,1],"name":"Cabin","mesh":1},{"translation":[1.737345814704895,7.898500204086304,1.3309999704360962],"scale":[1,1,1],"rotation":[0,0,0,1],"name":"Disk"},{"translation":[15.692845821380615,0,4.440892098500626e-16],"scale":[1,1,1],"rotation":[0,0,0,1],"name":"Front lights"},{"translation":[15.692845821380615,0,4.440892098500626e-16],"scale":[1,1,1],"rotation":[0,0,0,1],"name":"Red lights"},{"translation":[-0.3357868194580078,0,7.275219917297363],"scale":[1,1,1],"rotation":[0,0,0,1],"name":"Object","mesh":2},{"translation":[1.7374296188354492,-2.384185791015625e-7,0.6373012661933903],"scale":[1,1,1],"rotation":[0,0,0,1],"name":"Disks 01","mesh":3},{"translation":[1.7370781898498535,0,1.1281414031982426],"scale":[1,1,1],"rotation":[0,0,0,1],"name":"Disks 02","mesh":4},{"translation":[1.7375736236572266,2.9802322387695312e-8,2.9786982536315922],"scale":[1,1,1],"rotation":[0,0,0,1],"name":"Cylinders","mesh":5},{"translation":[21.66253489255905,2.384185791015625e-7,7.955692304298282],"scale":[1,1,1],"rotation":[0,0,0,1],"name":"Front lights body","mesh":6},{"translation":[22.717246800661087,4.768371533070633e-7,8.152151582762599],"scale":[1,1,1],"rotation":[0,0,0.7071067811865475,0.7071067811865476],"name":"Front lights 1","mesh":7},{"translation":[10.909064769744873,0,9.480791091918945],"scale":[1,1,1],"rotation":[0,0,0,1],"name":"Mirrors","mesh":8},{"translation":[23.637115478515625,0,6.242197513580322],"scale":[1,1,1],"rotation":[0,0,0,1],"name":"Grid background","mesh":9},{"translation":[23.087739944458008,0,4.119787216186523],"scale":[1,1,1],"rotation":[0,0,0,1],"name":"Frame/grid","mesh":10},{"translation":[23.70961570739746,4.768371530867131e-7,6.392197608947754],"scale":[1,1,1],"rotation":[0,0,0.7071067811865475,0.7071067811865476],"name":"Orange lights","mesh":11},{"translation":[23.70961570739746,-5.116411885364245e-15,6.392197608947754],"scale":[1,1,1],"rotation":[0,0,0.7071067811865475,0.7071067811865476],"name":"Lights","mesh":12},{"translation":[-20.8800687789917,-1.1920928955078125e-7,7.778099536895752],"scale":[1,1,1],"rotation":[0,0,0,1],"name":"Red lights 1","mesh":13},{"translation":[1.7373466491699219,-4.596326879486527e-16,0],"scale":[1,1,1],"rotation":[0,0,0.7071067811865475,0.7071067811865476],"name":"Wheels","mesh":14}],"materials":[{"pbrMetallicRoughness":{"baseColorFactor":[0,0.050980392156862744,1,1],"metallicFactor":0,"roughnessFactor":0},"name":"Material 1","emissiveFactor":[0,0,0],"alphaMode":"OPAQUE","doubleSided":false},{"pbrMetallicRoughness":{"baseColorFactor":[0.08235294117647059,0.9803921568627451,0,1],"metallicFactor":0,"roughnessFactor":0.6},"name":"Material 2","emissiveFactor":[0,0,0],"alphaMode":"OPAQUE","doubleSided":false},{"pbrMetallicRoughness":{"baseColorFactor":[0.7490196078431373,0.7490196078431373,0.7490196078431373,1],"metallicFactor":0,"roughnessFactor":0.2},"name":"Material 7","emissiveFactor":[0,0,0],"alphaMode":"OPAQUE","doubleSided":false},{"pbrMetallicRoughness":{"baseColorFactor":[1,1,1,1],"metallicFactor":0,"roughnessFactor":0.2},"name":"Material 8","emissiveFactor":[0,0,0],"alphaMode":"OPAQUE","doubleSided":false},{"pbrMetallicRoughness":{"baseColorFactor":[1,0,0,1],"metallicFactor":0,"roughnessFactor":0.2},"name":"Material 9","emissiveFactor":[0,0,0],"alphaMode":"OPAQUE","doubleSided":false},{"pbrMetallicRoughness":{"baseColorFactor":[0.25882352941176473,0.2549019607843137,0.22745098039215686,1],"metallicFactor":0,"roughnessFactor":0.8},"name":"Object material 2","emissiveFactor":[0,0,0],"alphaMode":"OPAQUE","doubleSided":false},{"pbrMetallicRoughness":{"baseColorFactor":[1,1,1,1],"metallicFactor":0,"roughnessFactor":0.2},"name":"Object 1 material","emissiveFactor":[0,0,0],"alphaMode":"OPAQUE","doubleSided":false},{"pbrMetallicRoughness":{"baseColorFactor":[0.9764705882352941,0.32941176470588235,0.4392156862745098,1],"metallicFactor":0,"roughnessFactor":0.2},"name":"Object 2 material","emissiveFactor":[0,0,0],"alphaMode":"OPAQUE","doubleSided":false},{"pbrMetallicRoughness":{"baseColorFactor":[0.24313725490196078,0.24705882352941178,0.3176470588235294,1],"metallicFactor":0,"roughnessFactor":0.2},"name":"Object 3 material","emissiveFactor":[0,0,0],"alphaMode":"OPAQUE","doubleSided":false},{"pbrMetallicRoughness":{"baseColorFactor":[0.24313725490196078,0.24705882352941178,0.3176470588235294,1],"metallicFactor":0,"roughnessFactor":0.2},"name":"Object 5 material","emissiveFactor":[0,0,0],"alphaMode":"OPAQUE","doubleSided":false},{"pbrMetallicRoughness":{"baseColorFactor":[1,1,1,1],"metallicFactor":0,"roughnessFactor":0.2},"name":"Object material 3","emissiveFactor":[1,1,1],"alphaMode":"OPAQUE","doubleSided":false},{"pbrMetallicRoughness":{"baseColorFactor":[1,1,1,1],"metallicFactor":0,"roughnessFactor":0.2},"name":"Object 6 material","emissiveFactor":[0,0,0],"alphaMode":"OPAQUE","doubleSided":false},{"pbrMetallicRoughness":{"baseColorFactor":[0,0,0,1],"metallicFactor":0,"roughnessFactor":0.2},"name":"Object 7 material","emissiveFactor":[0,0,0],"alphaMode":"OPAQUE","doubleSided":false},{"pbrMetallicRoughness":{"baseColorFactor":[0.4196078431372549,0.4196078431372549,0.4196078431372549,1],"metallicFactor":0,"roughnessFactor":0.2},"name":"Object 8 material","emissiveFactor":[0,0,0],"alphaMode":"OPAQUE","doubleSided":false},{"pbrMetallicRoughness":{"baseColorFactor":[1,0.796078431372549,0.24705882352941178,1],"metallicFactor":0,"roughnessFactor":0.2},"name":"Object 2 material 1","emissiveFactor":[0,0,0],"alphaMode":"OPAQUE","doubleSided":false},{"pbrMetallicRoughness":{"baseColorFactor":[1,1,1,1],"metallicFactor":0,"roughnessFactor":0.2},"name":"Object 3 material 1","emissiveFactor":[0,0,0],"alphaMode":"OPAQUE","doubleSided":false},{"pbrMetallicRoughness":{"baseColorFactor":[0.9764705882352941,0.32941176470588235,0.4392156862745098,1],"metallicFactor":0,"roughnessFactor":0.2},"name":"Object 9 material","emissiveFactor":[0,0,0],"alphaMode":"OPAQUE","doubleSided":false},{"pbrMetallicRoughness":{"baseColorFactor":[0.24313725490196078,0.24705882352941178,0.3176470588235294,1],"metallicFactor":0,"roughnessFactor":1},"name":"Object material 4","emissiveFactor":[0,0,0],"alphaMode":"OPAQUE","doubleSided":false}],"meshes":[{"primitives":[{"mode":4,"attributes":{"POSITION":1,"NORMAL":2,"TEXCOORD_0":3},"material":0,"indices":0}]},{"primitives":[{"mode":4,"attributes":{"POSITION":5,"NORMAL":6,"TEXCOORD_0":7},"material":1,"indices":4}]},{"primitives":[{"mode":4,"attributes":{"POSITION":9,"NORMAL":10,"TEXCOORD_0":11},"material":5,"indices":8}]},{"primitives":[{"mode":4,"attributes":{"POSITION":13,"NORMAL":14,"TEXCOORD_0":15},"material":6,"indices":12}]},{"primitives":[{"mode":4,"attributes":{"POSITION":17,"NORMAL":18,"TEXCOORD_0":19},"material":7,"indices":16}]},{"primitives":[{"mode":4,"attributes":{"POSITION":21,"NORMAL":22,"TEXCOORD_0":23},"material":8,"indices":20}]},{"primitives":[{"mode":4,"attributes":{"POSITION":25,"NORMAL":26,"TEXCOORD_0":27},"material":9,"indices":24}]},{"primitives":[{"mode":4,"attributes":{"POSITION":29,"NORMAL":30,"TEXCOORD_0":31},"material":10,"indices":28}]},{"primitives":[{"mode":4,"attributes":{"POSITION":33,"NORMAL":34,"TEXCOORD_0":35},"material":11,"indices":32}]},{"primitives":[{"mode":4,"attributes":{"POSITION":37,"NORMAL":38,"TEXCOORD_0":39},"material":12,"indices":36}]},{"primitives":[{"mode":4,"attributes":{"POSITION":41,"NORMAL":42,"TEXCOORD_0":43},"material":13,"indices":40}]},{"primitives":[{"mode":4,"attributes":{"POSITION":45,"NORMAL":46,"TEXCOORD_0":47},"material":14,"indices":44}]},{"primitives":[{"mode":4,"attributes":{"POSITION":49,"NORMAL":50,"TEXCOORD_0":51},"material":15,"indices":48}]},{"primitives":[{"mode":4,"attributes":{"POSITION":53,"NORMAL":54,"TEXCOORD_0":55},"material":16,"indices":52}]},{"primitives":[{"mode":4,"attributes":{"POSITION":57,"NORMAL":58,"TEXCOORD_0":59},"material":17,"indices":56}]}],"accessors":[{"bufferView":0,"byteOffset":0,"componentType":5125,"count":552,"type":"SCALAR"},{"bufferView":1,"byteOffset":0,"componentType":5126,"count":552,"max":[19.316905975341797,8.493069648742676,10.796213150024414],"min":[-19.316905975341797,-8.493069648742676,0],"type":"VEC3"},{"bufferView":2,"byteOffset":0,"componentType":5126,"count":552,"type":"VEC3"},{"bufferView":3,"byteOffset":0,"componentType":5126,"count":552,"type":"VEC2"},{"bufferView":4,"byteOffset":0,"componentType":5125,"count":4848,"type":"SCALAR"},{"bufferView":5,"byteOffset":0,"componentType":5126,"count":4848,"max":[23.336381912231445,8.703203201293945,13.592597961425781],"min":[-23.336381912231445,-8.703203201293945,0],"type":"VEC3"},{"bufferView":6,"byteOffset":0,"componentType":5126,"count":4848,"type":"VEC3"},{"bufferView":7,"byteOffset":0,"componentType":5126,"count":4848,"type":"VEC2"},{"bufferView":8,"byteOffset":0,"componentType":5125,"count":1344,"type":"SCALAR"},{"bufferView":9,"byteOffset":0,"componentType":5126,"count":1344,"max":[23.518829345703125,10.49590015411377,8.187335968017578],"min":[-23.518829345703125,-10.49590015411377,0],"type":"VEC3"},{"bufferView":10,"byteOffset":0,"componentType":5126,"count":1344,"type":"VEC3"},{"bufferView":11,"byteOffset":0,"componentType":5126,"count":1344,"type":"VEC2"},{"bufferView":12,"byteOffset":0,"componentType":5125,"count":2304,"type":"SCALAR"},{"bufferView":13,"byteOffset":0,"componentType":5126,"count":2304,"max":[16.752113342285156,8.343000411987305,5.593397617340088],"min":[-16.752113342285156,-8.343000411987305,0],"type":"VEC3"},{"bufferView":14,"byteOffset":0,"componentType":5126,"count":2304,"type":"VEC3"},{"bufferView":15,"byteOffset":0,"componentType":5126,"count":2304,"type":"VEC2"},{"bufferView":16,"byteOffset":0,"componentType":5125,"count":8352,"type":"SCALAR"},{"bufferView":17,"byteOffset":0,"componentType":5126,"count":8352,"max":[16.26162338256836,7.649000644683838,4.613022804260254],"min":[-16.26162338256836,-7.649000644683838,0],"type":"VEC3"},{"bufferView":18,"byteOffset":0,"componentType":5126,"count":8352,"type":"VEC3"},{"bufferView":19,"byteOffset":0,"componentType":5126,"count":8352,"type":"VEC2"},{"bufferView":20,"byteOffset":0,"componentType":5125,"count":576,"type":"SCALAR"},{"bufferView":21,"byteOffset":0,"componentType":5126,"count":576,"max":[14.409761428833008,7.887369155883789,0.9093711376190186],"min":[-14.409761428833008,-7.887369155883789,0],"type":"VEC3"},{"bufferView":22,"byteOffset":0,"componentType":5126,"count":576,"type":"VEC3"},{"bufferView":23,"byteOffset":0,"componentType":5126,"count":576,"type":"VEC2"},{"bufferView":24,"byteOffset":0,"componentType":5125,"count":168,"type":"SCALAR"},{"bufferView":25,"byteOffset":0,"componentType":5126,"count":168,"max":[1.3023189306259155,7.730856895446777,1.7210650444030762],"min":[-1.3023189306259155,-7.730856895446777,0],"type":"VEC3"},{"bufferView":26,"byteOffset":0,"componentType":5126,"count":168,"type":"VEC3"},{"bufferView":27,"byteOffset":0,"componentType":5126,"count":168,"type":"VEC2"},{"bufferView":28,"byteOffset":0,"componentType":5125,"count":72,"type":"SCALAR"},{"bufferView":29,"byteOffset":0,"componentType":5126,"count":72,"max":[7.530857086181641,0.21014058589935303,1.359993577003479],"min":[-7.530857086181641,-0.2101401686668396,4.7497451305389404e-7],"type":"VEC3"},{"bufferView":30,"byteOffset":0,"componentType":5126,"count":72,"type":"VEC3"},{"bufferView":31,"byteOffset":0,"componentType":5126,"count":72,"type":"VEC2"},{"bufferView":32,"byteOffset":0,"componentType":5125,"count":120,"type":"SCALAR"},{"bufferView":33,"byteOffset":0,"componentType":5126,"count":120,"max":[0.09999990463256836,10.295900344848633,0.8388099670410156],"min":[-0.09999990463256836,-10.295900344848633,0],"type":"VEC3"},{"bufferView":34,"byteOffset":0,"componentType":5126,"count":120,"type":"VEC3"},{"bufferView":35,"byteOffset":0,"componentType":5126,"count":120,"type":"VEC2"},{"bufferView":36,"byteOffset":0,"componentType":5125,"count":60,"type":"SCALAR"},{"bufferView":37,"byteOffset":0,"componentType":5126,"count":60,"max":[0.07250022888183594,4.042454719543457,0.7944965362548828],"min":[-0.07250022888183594,-4.042454719543457,0],"type":"VEC3"},{"bufferView":38,"byteOffset":0,"componentType":5126,"count":60,"type":"VEC3"},{"bufferView":39,"byteOffset":0,"componentType":5126,"count":60,"type":"VEC2"},{"bufferView":40,"byteOffset":0,"componentType":5125,"count":2616,"type":"SCALAR"},{"bufferView":41,"byteOffset":0,"componentType":5126,"count":2616,"max":[0.766876220703125,7.630857467651367,2.9169068336486816],"min":[-0.766876220703125,-7.630857467651367,0],"type":"VEC3"},{"bufferView":42,"byteOffset":0,"componentType":5126,"count":2616,"type":"VEC3"},{"bufferView":43,"byteOffset":0,"componentType":5126,"count":2616,"type":"VEC2"},{"bufferView":44,"byteOffset":0,"componentType":5125,"count":72,"type":"SCALAR"},{"bufferView":45,"byteOffset":0,"componentType":5126,"count":72,"max":[7.4808573722839355,0.14500045776367188,0.49449634552001953],"min":[-7.4808573722839355,-0.14500045776367188,0],"type":"VEC3"},{"bufferView":46,"byteOffset":0,"componentType":5126,"count":72,"type":"VEC3"},{"bufferView":47,"byteOffset":0,"componentType":5126,"count":72,"type":"VEC2"},{"bufferView":48,"byteOffset":0,"componentType":5125,"count":72,"type":"SCALAR"},{"bufferView":49,"byteOffset":0,"componentType":5126,"count":72,"max":[5.999168395996094,0.14500045776367188,0.49449634552001953],"min":[-5.999168395996094,-0.14500045776367188,0],"type":"VEC3"},{"bufferView":50,"byteOffset":0,"componentType":5126,"count":72,"type":"VEC3"},{"bufferView":51,"byteOffset":0,"componentType":5126,"count":72,"type":"VEC2"},{"bufferView":52,"byteOffset":0,"componentType":5125,"count":120,"type":"SCALAR"},{"bufferView":53,"byteOffset":0,"componentType":5126,"count":120,"max":[0.688166618347168,8.443000793457031,1.5617566108703613],"min":[-0.688166618347168,-8.443000793457031,0],"type":"VEC3"},{"bufferView":54,"byteOffset":0,"componentType":5126,"count":120,"type":"VEC3"},{"bufferView":55,"byteOffset":0,"componentType":5126,"count":120,"type":"VEC2"},{"bufferView":56,"byteOffset":0,"componentType":5125,"count":1152,"type":"SCALAR"},{"bufferView":57,"byteOffset":0,"componentType":5126,"count":1152,"max":[8.343000411987305,17.389497756958008,6.868000030517578],"min":[-8.343000411987305,-17.389497756958008,0],"type":"VEC3"},{"bufferView":58,"byteOffset":0,"componentType":5126,"count":1152,"type":"VEC3"},{"bufferView":59,"byteOffset":0,"componentType":5126,"count":1152,"type":"VEC2"}],"bufferViews":[{"buffer":0,"byteOffset":0,"byteLength":2208,"target":34963},{"buffer":0,"byteOffset":2208,"byteLength":6624,"target":34962},{"buffer":0,"byteOffset":8832,"byteLength":6624,"target":34962},{"buffer":0,"byteOffset":15456,"byteLength":4416,"target":34962},{"buffer":0,"byteOffset":19872,"byteLength":19392,"target":34963},{"buffer":0,"byteOffset":39264,"byteLength":58176,"target":34962},{"buffer":0,"byteOffset":97440,"byteLength":58176,"target":34962},{"buffer":0,"byteOffset":155616,"byteLength":38784,"target":34962},{"buffer":0,"byteOffset":194400,"byteLength":5376,"target":34963},{"buffer":0,"byteOffset":199776,"byteLength":16128,"target":34962},{"buffer":0,"byteOffset":215904,"byteLength":16128,"target":34962},{"buffer":0,"byteOffset":232032,"byteLength":10752,"target":34962},{"buffer":0,"byteOffset":242784,"byteLength":9216,"target":34963},{"buffer":0,"byteOffset":252000,"byteLength":27648,"target":34962},{"buffer":0,"byteOffset":279648,"byteLength":27648,"target":34962},{"buffer":0,"byteOffset":307296,"byteLength":18432,"target":34962},{"buffer":0,"byteOffset":325728,"byteLength":33408,"target":34963},{"buffer":0,"byteOffset":359136,"byteLength":100224,"target":34962},{"buffer":0,"byteOffset":459360,"byteLength":100224,"target":34962},{"buffer":0,"byteOffset":559584,"byteLength":66816,"target":34962},{"buffer":0,"byteOffset":626400,"byteLength":2304,"target":34963},{"buffer":0,"byteOffset":628704,"byteLength":6912,"target":34962},{"buffer":0,"byteOffset":635616,"byteLength":6912,"target":34962},{"buffer":0,"byteOffset":642528,"byteLength":4608,"target":34962},{"buffer":0,"byteOffset":647136,"byteLength":672,"target":34963},{"buffer":0,"byteOffset":647808,"byteLength":2016,"target":34962},{"buffer":0,"byteOffset":649824,"byteLength":2016,"target":34962},{"buffer":0,"byteOffset":651840,"byteLength":1344,"target":34962},{"buffer":0,"byteOffset":653184,"byteLength":288,"target":34963},{"buffer":0,"byteOffset":653472,"byteLength":864,"target":34962},{"buffer":0,"byteOffset":654336,"byteLength":864,"target":34962},{"buffer":0,"byteOffset":655200,"byteLength":576,"target":34962},{"buffer":0,"byteOffset":655776,"byteLength":480,"target":34963},{"buffer":0,"byteOffset":656256,"byteLength":1440,"target":34962},{"buffer":0,"byteOffset":657696,"byteLength":1440,"target":34962},{"buffer":0,"byteOffset":659136,"byteLength":960,"target":34962},{"buffer":0,"byteOffset":660096,"byteLength":240,"target":34963},{"buffer":0,"byteOffset":660336,"byteLength":720,"target":34962},{"buffer":0,"byteOffset":661056,"byteLength":720,"target":34962},{"buffer":0,"byteOffset":661776,"byteLength":480,"target":34962},{"buffer":0,"byteOffset":662256,"byteLength":10464,"target":34963},{"buffer":0,"byteOffset":672720,"byteLength":31392,"target":34962},{"buffer":0,"byteOffset":704112,"byteLength":31392,"target":34962},{"buffer":0,"byteOffset":735504,"byteLength":20928,"target":34962},{"buffer":0,"byteOffset":756432,"byteLength":288,"target":34963},{"buffer":0,"byteOffset":756720,"byteLength":864,"target":34962},{"buffer":0,"byteOffset":757584,"byteLength":864,"target":34962},{"buffer":0,"byteOffset":758448,"byteLength":576,"target":34962},{"buffer":0,"byteOffset":759024,"byteLength":288,"target":34963},{"buffer":0,"byteOffset":759312,"byteLength":864,"target":34962},{"buffer":0,"byteOffset":760176,"byteLength":864,"target":34962},{"buffer":0,"byteOffset":761040,"byteLength":576,"target":34962},{"buffer":0,"byteOffset":761616,"byteLength":480,"target":34963},{"buffer":0,"byteOffset":762096,"byteLength":1440,"target":34962},{"buffer":0,"byteOffset":763536,"byteLength":1440,"target":34962},{"buffer":0,"byteOffset":764976,"byteLength":960,"target":34962},{"buffer":0,"byteOffset":765936,"byteLength":4608,"target":34963},{"buffer":0,"byteOffset":770544,"byteLength":13824,"target":34962},{"buffer":0,"byteOffset":784368,"byteLength":13824,"target":34962},{"buffer":0,"byteOffset":798192,"byteLength":9216,"target":34962}],"scenes":[{"nodes":[0],"name":"SportGreen"}],"buffers":[{"byteLength":807408,"uri":"SportGreen.bin"}]}