{"asset":{"version":"2.0","generator":"VECTARY"},"scene":0,"extensionsUsed":["KHR_texture_transform"],"nodes":[{"translation":[0,0,0],"scale":[0.001,0.001,0.001],"rotation":[-0.7071067811865475,0,0,0.7071067811865476],"name":"Car","children":[1,2,3,4,5,6]},{"translation":[12.473499774932861,0,0],"scale":[1,1,1],"rotation":[0,0,0,1],"name":"Main body","mesh":0},{"translation":[15.9544997215271,0,12.99899959564209],"scale":[1,1,1],"rotation":[0,0,0,1],"name":"Windows/Wheels","mesh":1},{"translation":[12.473499774932861,0,0],"scale":[1,1,1],"rotation":[0,0,0,1],"name":"Disk","mesh":2},{"translation":[12.473499774932861,0,0],"scale":[1,1,1],"rotation":[0,0,0,1],"name":"Front lights","mesh":3},{"translation":[12.473499774932861,0,0],"scale":[1,1,1],"rotation":[0,0,0,1],"name":"Red lights","mesh":4},{"translation":[-1.328000545501709,3.9527271057237124e-15,0],"scale":[1,1,1],"rotation":[0,0,0.7071067811865475,0.7071067811865476],"name":"Wheels","mesh":5}],"materials":[{"pbrMetallicRoughness":{"baseColorFactor":[0.0392156862745098,0.42745098039215684,0.47058823529411764,1],"metallicFactor":0,"roughnessFactor":0.5},"name":"Material 1","emissiveFactor":[0,0,0],"alphaMode":"OPAQUE","doubleSided":false},{"pbrMetallicRoughness":{"baseColorFactor":[0.24313725490196078,0.24705882352941178,0.3176470588235294,1],"metallicFactor":0,"roughnessFactor":0},"name":"Material 2","emissiveFactor":[0,0,0],"alphaMode":"OPAQUE","doubleSided":false},{"pbrMetallicRoughness":{"baseColorFactor":[0.6901960784313725,0.6901960784313725,0.6901960784313725,1],"metallicFactor":0,"roughnessFactor":0.2},"name":"Material 3","emissiveFactor":[0,0,0],"alphaMode":"OPAQUE","doubleSided":false},{"pbrMetallicRoughness":{"baseColorFactor":[1,1,1,1],"metallicFactor":0,"roughnessFactor":0.2},"name":"Material 4","emissiveFactor":[0,0,0],"alphaMode":"OPAQUE","doubleSided":false},{"pbrMetallicRoughness":{"baseColorFactor":[0.9764705882352941,0.32941176470588235,0.4392156862745098,1],"baseColorTexture":{"index":0,"extensions":{"KHR_texture_transform":{"offset":[0,0],"scale":[1,1]}}},"metallicFactor":0,"roughnessFactor":0.2},"name":"Material 5","emissiveFactor":[0,0,0],"alphaMode":"OPAQUE","doubleSided":false},{"pbrMetallicRoughness":{"baseColorFactor":[0.24313725490196078,0.24705882352941178,0.3176470588235294,1],"metallicFactor":0,"roughnessFactor":1},"name":"Object material","emissiveFactor":[0,0,0],"alphaMode":"OPAQUE","doubleSided":false}],"meshes":[{"primitives":[{"mode":4,"attributes":{"POSITION":1,"NORMAL":2,"TEXCOORD_0":3},"material":0,"indices":0}]},{"primitives":[{"mode":4,"attributes":{"POSITION":5,"NORMAL":6,"TEXCOORD_0":7},"material":1,"indices":4}]},{"primitives":[{"mode":4,"attributes":{"POSITION":9,"NORMAL":10,"TEXCOORD_0":11},"material":2,"indices":8}]},{"primitives":[{"mode":4,"attributes":{"POSITION":13,"NORMAL":14,"TEXCOORD_0":15},"material":3,"indices":12}]},{"primitives":[{"mode":4,"attributes":{"POSITION":17,"NORMAL":18,"TEXCOORD_0":19},"material":4,"indices":16}]},{"primitives":[{"mode":4,"attributes":{"POSITION":21,"NORMAL":22,"TEXCOORD_0":23},"material":5,"indices":20}]}],"accessors":[{"bufferView":0,"byteOffset":0,"componentType":5125,"count":2412,"type":"SCALAR"},{"bufferView":1,"byteOffset":0,"componentType":5126,"count":2412,"max":[12.088000297546387,9.020999908447266,20.719999313354492],"min":[-37.08399963378906,-9.020999908447266,3.434000015258789],"type":"VEC3"},{"bufferView":2,"byteOffset":0,"componentType":5126,"count":2412,"type":"VEC3"},{"bufferView":3,"byteOffset":0,"componentType":5126,"count":2412,"type":"VEC2"},{"bufferView":4,"byteOffset":0,"componentType":5125,"count":384,"type":"SCALAR"},{"bufferView":5,"byteOffset":0,"componentType":5126,"count":384,"max":[7.8389997482299805,8.89900016784668,6.782000541687012],"min":[-7.8389997482299805,-8.89900016784668,0],"type":"VEC3"},{"bufferView":6,"byteOffset":0,"componentType":5126,"count":384,"type":"VEC3"},{"bufferView":7,"byteOffset":0,"componentType":5126,"count":384,"type":"VEC2"},{"bufferView":8,"byteOffset":0,"componentType":5125,"count":1152,"type":"SCALAR"},{"bufferView":9,"byteOffset":0,"componentType":5126,"count":1152,"max":[1.968000054359436,8.552000045776367,5.4019999504089355],"min":[-29.570999145507812,-8.552000045776367,1.465999960899353],"type":"VEC3"},{"bufferView":10,"byteOffset":0,"componentType":5126,"count":1152,"type":"VEC3"},{"bufferView":11,"byteOffset":0,"componentType":5126,"count":1152,"type":"VEC2"},{"bufferView":12,"byteOffset":0,"componentType":5125,"count":144,"type":"SCALAR"},{"bufferView":13,"byteOffset":0,"componentType":5126,"count":144,"max":[12.13700008392334,7.88700008392334,11.482000350952148],"min":[11.833999633789062,-7.88700008392334,9.335000038146973],"type":"VEC3"},{"bufferView":14,"byteOffset":0,"componentType":5126,"count":144,"type":"VEC3"},{"bufferView":15,"byteOffset":0,"componentType":5126,"count":144,"type":"VEC2"},{"bufferView":16,"byteOffset":0,"componentType":5125,"count":72,"type":"SCALAR"},{"bufferView":17,"byteOffset":0,"componentType":5126,"count":72,"max":[-36.875,8.060999870300293,7.311999797821045],"min":[-37.02000045776367,-8.060999870300293,6.501999855041504],"type":"VEC3"},{"bufferView":18,"byteOffset":0,"componentType":5126,"count":72,"type":"VEC3"},{"bufferView":19,"byteOffset":0,"componentType":5126,"count":72,"type":"VEC2"},{"bufferView":20,"byteOffset":0,"componentType":5125,"count":1440,"type":"SCALAR"},{"bufferView":21,"byteOffset":0,"componentType":5126,"count":1440,"max":[8.50100040435791,17.23550033569336,6.868000030517578],"min":[-8.50100040435791,-17.23550033569336,0],"type":"VEC3"},{"bufferView":22,"byteOffset":0,"componentType":5126,"count":1440,"type":"VEC3"},{"bufferView":23,"byteOffset":0,"componentType":5126,"count":1440,"type":"VEC2"}],"bufferViews":[{"buffer":0,"byteOffset":0,"byteLength":9648,"target":34963},{"buffer":0,"byteOffset":9648,"byteLength":28944,"target":34962},{"buffer":0,"byteOffset":38592,"byteLength":28944,"target":34962},{"buffer":0,"byteOffset":67536,"byteLength":19296,"target":34962},{"buffer":0,"byteOffset":86832,"byteLength":1536,"target":34963},{"buffer":0,"byteOffset":88368,"byteLength":4608,"target":34962},{"buffer":0,"byteOffset":92976,"byteLength":4608,"target":34962},{"buffer":0,"byteOffset":97584,"byteLength":3072,"target":34962},{"buffer":0,"byteOffset":100656,"byteLength":4608,"target":34963},{"buffer":0,"byteOffset":105264,"byteLength":13824,"target":34962},{"buffer":0,"byteOffset":119088,"byteLength":13824,"target":34962},{"buffer":0,"byteOffset":132912,"byteLength":9216,"target":34962},{"buffer":0,"byteOffset":142128,"byteLength":576,"target":34963},{"buffer":0,"byteOffset":142704,"byteLength":1728,"target":34962},{"buffer":0,"byteOffset":144432,"byteLength":1728,"target":34962},{"buffer":0,"byteOffset":146160,"byteLength":1152,"target":34962},{"buffer":0,"byteOffset":147312,"byteLength":288,"target":34963},{"buffer":0,"byteOffset":147600,"byteLength":864,"target":34962},{"buffer":0,"byteOffset":148464,"byteLength":864,"target":34962},{"buffer":0,"byteOffset":149328,"byteLength":576,"target":34962},{"buffer":0,"byteOffset":149904,"byteLength":5760,"target":34963},{"buffer":0,"byteOffset":155664,"byteLength":17280,"target":34962},{"buffer":0,"byteOffset":172944,"byteLength":17280,"target":34962},{"buffer":0,"byteOffset":190224,"byteLength":11520,"target":34962}],"textures":[{"sampler":0,"source":0}],"images":[{"uri":"9c597c61-ed7f-4228-9d35-6d6c9729bf34.jpg","mimeType":"image/jpeg"}],"samplers":[{"wrapS":10497,"wrapT":10497}],"scenes":[{"nodes":[0],"name":"PickUpAqua"}],"buffers":[{"byteLength":201744,"uri":"PickUpAqua.bin"}]}